<svg version="1.1" id="Layer_1" xmlns="http://www.w3.org/2000/svg" xmlns:xlink="http://www.w3.org/1999/xlink" x="0px" y="0px"
	 width="100%" viewBox="0 0 1026 850" enable-background="new 0 0 1026 850" xml:space="preserve">
<path fill="#FFFFFF" opacity="1.000000" stroke="none" 
	d="
M609.000000,851.000000 
	C406.000000,851.000000 203.500000,851.000000 1.000000,851.000000 
	C1.000000,567.666687 1.000000,284.333344 1.000000,1.000000 
	C343.000000,1.000000 685.000000,1.000000 1027.000000,1.000000 
	C1027.000000,284.333344 1027.000000,567.666687 1027.000000,851.000000 
	C887.833313,851.000000 748.666687,851.000000 609.000000,851.000000 
M576.775696,116.263145 
	C581.330139,118.939819 580.101257,123.406395 580.293640,127.467789 
	C580.536743,132.598312 582.045959,133.622421 587.196716,132.341705 
	C582.340210,123.797234 582.343933,120.413918 586.812256,117.335350 
	C585.697021,115.640617 584.684448,114.010529 583.565857,112.456718 
	C583.222778,111.980103 582.333862,111.299828 582.134827,111.423080 
	C581.414856,111.869087 580.948242,112.702431 580.264648,113.233490 
	C578.856812,114.327217 577.370972,115.320412 575.530029,115.904472 
	C573.326477,117.472084 571.122925,119.039688 568.532043,120.882797 
	C566.628174,120.030052 566.876831,114.557899 561.339233,116.457352 
	C568.269592,121.804726 567.260010,127.265015 561.361877,132.733185 
	C561.966003,133.056564 562.570129,133.379929 563.174194,133.703293 
	C565.264648,131.648453 567.355103,129.593613 569.381104,127.602089 
	C571.654724,129.092224 571.471741,134.005890 576.524231,132.603851 
	C574.500793,129.541855 572.788086,126.950134 571.067810,124.346909 
	C572.744995,121.707886 574.334778,119.206375 576.775696,116.263145 
M233.500000,473.000031 
	C448.333099,473.000031 663.166199,473.000366 877.999268,472.998932 
	C888.887329,472.998871 892.997009,468.851715 892.999146,457.875336 
	C893.002380,440.875366 893.015747,423.875336 892.993774,406.875397 
	C892.981812,397.617920 888.431946,393.007355 879.250000,393.007019 
	C632.416870,392.998199 385.583771,392.998169 138.750641,393.006989 
	C129.568283,393.007324 125.018089,397.617432 125.006226,406.874756 
	C124.984222,424.041382 124.994301,441.208038 125.002022,458.374695 
	C125.006638,468.654877 129.304596,472.994904 139.500076,472.997345 
	C170.500046,473.004761 201.500031,473.000031 233.500000,473.000031 
M261.880981,319.335297 
	C267.569061,326.848236 281.469299,328.400238 288.139862,321.993591 
	C289.816254,320.383514 291.438782,317.786407 291.508972,315.592468 
	C291.853241,304.833862 291.665161,294.058258 291.665161,282.472534 
	C287.921082,283.110168 284.634796,283.669861 280.138031,284.435699 
	C273.240234,279.030884 261.075134,282.461029 260.216187,296.372101 
	C260.054504,298.990570 260.262573,301.723358 260.844666,304.279327 
	C262.685150,312.361298 269.185547,316.197266 277.025146,313.926483 
	C278.815247,313.407990 280.447205,312.343567 282.151947,311.530426 
	C282.530792,311.813965 282.909668,312.097473 283.288513,312.381012 
	C282.143280,314.320129 281.407776,317.294128 279.754059,317.948853 
	C277.438751,318.865570 274.410400,318.274780 271.740356,317.923706 
	C268.766266,317.532623 265.863922,316.607391 262.893372,316.160645 
	C262.590332,316.115112 262.033905,317.754486 261.880981,319.335297 
M244.161087,301.594574 
	C244.179871,295.894958 240.844315,292.714813 235.859955,291.097717 
	C232.393570,289.973175 228.583450,289.766815 225.278656,288.337128 
	C223.220154,287.446655 221.817139,285.040955 220.119934,283.315277 
	C222.223663,281.967010 224.187439,279.972809 226.475861,279.476929 
	C228.273453,279.087433 231.516129,279.942566 232.303558,281.298126 
	C235.037170,286.004089 238.947754,284.951538 244.623642,284.679413 
	C242.367661,280.855286 241.179581,277.310760 238.775299,275.072906 
	C233.141739,269.829346 220.351913,270.333099 214.599518,275.438080 
	C208.148361,281.163177 209.436249,291.364166 217.314972,294.873627 
	C220.757660,296.407074 224.632462,296.962524 228.299576,298.002472 
	C231.299423,298.853180 235.263351,299.350616 234.507355,303.580688 
	C233.780380,307.648315 229.804428,307.972778 226.455368,307.730713 
	C224.415192,307.583252 221.542953,306.924469 220.627197,305.487030 
	C217.823364,301.086029 214.041962,302.206024 210.229980,302.409210 
	C209.981171,308.355743 212.389664,312.636627 218.225418,314.064728 
	C222.937057,315.217743 228.109818,315.458099 232.943115,314.911224 
	C239.938416,314.119720 243.489288,309.599304 244.161087,301.594574 
M472.186157,311.470123 
	C473.840424,317.084412 473.464081,317.510742 465.869843,318.505096 
	C465.869843,320.591125 465.869843,322.691132 465.869843,324.756775 
	C475.137939,325.922516 480.339050,324.559967 482.557831,318.898773 
	C487.126129,307.242950 490.947876,295.294495 495.192627,283.134583 
	C491.475342,283.134583 488.505981,283.134583 485.360535,283.134583 
	C483.288116,290.532257 481.238617,297.848114 479.189148,305.163940 
	C478.910919,305.082397 478.632690,305.000854 478.354462,304.919312 
	C476.339508,297.612732 474.324554,290.306152 472.361572,283.187988 
	C468.869263,283.187988 465.913879,283.187988 462.328247,283.187988 
	C465.629700,292.604095 468.801910,301.651489 472.186157,311.470123 
M623.098572,308.429291 
	C623.092346,303.276764 623.667419,298.031189 622.863525,293.006287 
	C622.374878,289.952240 620.439392,286.145447 617.956177,284.595551 
	C612.460754,281.165558 606.045837,281.244781 600.485962,284.785065 
	C598.057495,286.331421 596.650696,289.482483 594.779968,291.904816 
	C595.307007,292.634460 595.833984,293.364105 596.361023,294.093750 
	C599.459778,292.931763 602.745850,292.108917 605.611816,290.525604 
	C609.579224,288.333832 613.301941,290.154968 613.635620,294.972290 
	C609.098389,295.683167 604.417480,295.940857 600.042725,297.234344 
	C595.576172,298.554932 593.484070,302.224792 594.119812,306.965668 
	C594.744324,311.622925 597.535522,314.864166 602.205078,314.991486 
	C606.086121,315.097321 610.004944,313.817749 613.715820,313.184509 
	C615.881714,317.143280 619.741089,314.225403 623.098572,314.837952 
	C623.098572,312.702271 623.098572,311.054291 623.098572,308.429291 
M751.342163,282.978821 
	C749.531555,282.978821 747.721008,282.978821 745.363953,282.978821 
	C745.363953,288.767914 745.448792,294.231262 745.339905,299.690765 
	C745.232178,305.093933 743.038757,308.110809 739.321594,307.811951 
	C734.329590,307.410675 733.990234,303.667755 734.012939,299.773682 
	C734.044800,294.315826 734.020996,288.857574 734.020996,283.339783 
	C730.725281,283.339783 727.867188,283.339783 724.963928,283.339783 
	C724.963928,290.860931 724.756531,298.028961 725.021790,305.179474 
	C725.291138,312.440155 730.200623,316.436249 737.389221,315.312714 
	C740.021851,314.901245 742.504761,313.531860 744.850708,312.674500 
	C746.895203,317.226257 750.969788,314.135925 754.577576,315.091888 
	C754.577576,304.730011 754.619019,294.766388 754.477905,284.805359 
	C754.469177,284.186768 753.026001,283.588531 751.342163,282.978821 
M717.123169,311.649231 
	C718.679688,307.725433 721.069153,303.913727 721.615356,299.854004 
	C722.675232,291.974854 718.280762,285.333557 711.775330,283.246124 
	C704.149780,280.799286 695.914795,283.423889 692.393494,289.423370 
	C688.458496,296.127686 689.645630,306.864746 694.859619,311.728577 
	C700.194702,316.705383 709.534302,316.865051 717.123169,311.649231 
M506.417480,315.171082 
	C508.729279,315.195190 511.072876,315.476654 513.347046,315.195892 
	C520.649353,314.294342 525.158447,309.219177 525.901489,301.372864 
	C526.747559,292.439819 522.956299,285.468872 516.033691,283.228912 
	C507.096191,280.336975 498.120087,284.134857 495.493073,292.143799 
	C492.576721,301.034698 495.070892,312.877960 506.417480,315.171082 
M768.079529,302.648254 
	C768.079590,301.649750 768.070129,300.651184 768.081177,299.652802 
	C768.148315,293.576172 770.147705,290.270172 773.850098,290.103516 
	C777.825562,289.924591 779.595215,292.700470 779.636597,299.295380 
	C779.668823,304.432709 779.643066,309.570374 779.643066,314.757935 
	C782.823669,314.757935 785.584595,314.757935 788.286560,314.757935 
	C788.286560,306.905182 788.739380,299.269745 788.151855,291.715240 
	C787.624817,284.937408 782.690369,281.530640 775.968628,282.643707 
	C773.339966,283.079010 770.879761,284.531616 768.699036,285.382019 
	C766.254944,281.168732 762.462402,283.577057 759.263062,283.154266 
	C759.263062,293.967346 759.263062,304.365692 759.263062,314.750732 
	C762.286621,314.750732 765.028687,314.750732 768.079529,314.750732 
	C768.079529,310.866119 768.079529,307.236115 768.079529,302.648254 
M354.987579,288.605774 
	C354.987579,297.356445 354.987579,306.107147 354.987579,314.709900 
	C358.367432,314.709900 361.111969,314.709900 364.079620,314.709900 
	C364.079620,312.270111 364.031921,310.126587 364.089661,307.985901 
	C364.205872,303.675110 363.772705,299.215454 364.788025,295.120117 
	C365.288086,293.102997 368.396027,290.717102 370.541718,290.481354 
	C371.964630,290.325043 374.229889,293.458527 375.263794,295.543030 
	C376.071747,297.172058 375.618439,299.452148 375.633728,301.443665 
	C375.667786,305.881409 375.644348,310.319611 375.644348,314.698212 
	C378.951202,314.698212 381.698364,314.698212 384.191040,314.698212 
	C384.191040,306.610840 384.477081,298.823792 384.086395,291.070831 
	C383.842438,286.230133 380.746368,282.924377 375.742401,282.882019 
	C372.025391,282.850555 368.298645,283.972046 364.326904,284.620697 
	C362.862091,280.532043 358.604340,283.992249 354.987579,282.777069 
	C354.987579,284.725067 354.987579,286.178986 354.987579,288.605774 
M307.715271,284.703705 
	C307.277252,284.938599 306.488586,285.424713 306.451202,285.372559 
	C303.724152,281.566772 300.014374,283.225891 296.478088,283.180786 
	C296.478088,293.949585 296.478088,304.351715 296.478088,314.719360 
	C299.542572,314.719360 302.287323,314.719360 305.300629,314.719360 
	C305.300629,309.111572 305.160919,303.786591 305.346649,298.472992 
	C305.484894,294.516968 306.216278,290.555908 311.282562,290.149963 
	C314.998444,289.852234 316.835510,292.730591 316.879578,298.477692 
	C316.921265,303.910034 316.888550,309.342896 316.888550,314.728699 
	C320.238678,314.728699 322.980652,314.728699 325.751099,314.728699 
	C325.862122,313.984955 325.993561,313.510040 325.994751,313.034790 
	C326.009644,307.035583 326.152252,301.032043 325.974823,295.038086 
	C325.648193,284.004822 318.603973,279.701752 307.715271,284.703705 
M422.731995,287.279205 
	C418.150146,293.053406 417.935669,299.547150 420.102966,306.155579 
	C422.159180,312.425171 427.086884,315.178925 433.454651,315.477875 
	C439.628021,315.767700 445.016052,314.202423 448.311188,308.408386 
	C452.224457,301.527405 450.672791,290.409271 445.210846,285.860382 
	C439.308929,280.945068 430.120148,281.297241 422.731995,287.279205 
M558.890625,297.504211 
	C558.890625,292.745300 558.890625,287.986389 558.890625,283.292450 
	C555.493347,283.292450 552.748291,283.292450 549.763367,283.292450 
	C549.763367,289.063812 549.857544,294.536713 549.731689,300.004547 
	C549.641174,303.937531 548.511902,307.657562 543.813904,307.770996 
	C538.800232,307.892059 538.213562,303.951691 538.168945,300.075348 
	C538.104492,294.478577 538.152466,288.880524 538.152466,283.255585 
	C534.860901,283.255585 532.125610,283.255585 529.156311,283.255585 
	C529.156311,290.800781 528.808960,298.105255 529.252014,305.361481 
	C529.714050,312.928131 534.726318,316.545013 542.299866,315.174622 
	C544.758423,314.729767 547.046204,313.340942 549.249817,312.449493 
	C551.397217,317.350983 555.369751,314.218903 558.890625,314.886200 
	C558.890625,309.095032 558.890625,303.798431 558.890625,297.504211 
M658.666199,301.891296 
	C660.096619,311.250610 665.823669,316.023102 675.044250,315.539520 
	C683.243958,315.109467 687.903137,310.712006 688.092957,303.092590 
	C684.280640,302.859650 680.585876,301.720947 678.009399,306.501038 
	C676.441772,309.409485 671.583008,308.570312 669.447693,305.675385 
	C667.211182,302.643250 667.213562,295.422302 669.452087,292.354889 
	C671.730042,289.233398 676.621399,288.615234 678.345642,291.861908 
	C681.023804,296.904816 684.742432,294.804291 688.422302,294.769196 
	C687.420044,287.476074 684.039185,283.858307 677.492432,282.763794 
	C665.249878,280.717102 657.819702,287.892609 658.666199,301.891296 
M637.097107,292.914886 
	C639.538940,289.385590 643.459351,288.123352 645.807922,291.465271 
	C648.925232,295.900940 652.328857,295.341553 656.383301,294.782104 
	C655.363159,286.228455 649.428467,281.645935 640.700745,282.475311 
	C631.377930,283.361298 625.987915,289.704803 626.302124,299.421173 
	C626.636169,309.752747 632.717285,315.793030 642.544983,315.554962 
	C650.979919,315.350647 655.899048,310.873322 656.092957,303.092712 
	C652.280518,302.859406 648.668030,301.781097 645.994629,306.487732 
	C644.133972,309.763336 638.329468,308.672119 637.159668,304.747314 
	C636.140015,301.326233 636.837708,297.393250 637.097107,292.914886 
M411.385040,296.500488 
	C411.385040,294.423279 411.385040,292.346069 411.385040,290.272491 
	C413.683167,290.066711 415.280518,289.923706 416.846344,289.783508 
	C416.846344,287.407532 416.846344,285.342926 416.846344,283.171906 
	C414.966278,283.025146 413.347961,282.898834 411.600494,282.762451 
	C411.424072,280.235382 411.256989,277.842468 411.104675,275.660767 
	C407.817657,275.660767 405.085297,275.660767 402.122864,275.660767 
	C402.122864,278.188751 402.122864,280.320648 402.122864,282.479614 
	C400.569733,282.868958 399.236969,283.203064 398.138916,283.478333 
	C398.138916,285.805176 398.138916,287.750397 398.138916,289.725281 
	C399.576904,289.989319 400.796143,290.213196 402.131805,290.458466 
	C402.131805,295.051880 402.098907,299.366455 402.138428,303.680328 
	C402.231995,313.899780 406.648682,317.281128 416.950134,314.890991 
	C416.950134,312.972443 416.950134,311.013916 416.950134,308.812012 
	C411.857513,309.087189 411.172485,305.894012 411.373413,301.974304 
	C411.449921,300.481537 411.385284,298.981506 411.385040,296.500488 
M809.982300,285.589539 
	C810.306763,280.678680 805.564819,284.490570 804.272644,282.160339 
	C804.137878,280.053711 803.994385,277.810211 803.851868,275.581543 
	C800.708374,275.581543 797.973938,275.581543 795.141113,275.581543 
	C795.020264,278.169983 794.913696,280.454224 794.808289,282.712494 
	C793.352356,282.951385 792.126709,283.152527 790.838562,283.363922 
	C790.838562,285.573486 790.838562,287.533020 790.838562,289.681396 
	C792.276489,289.938477 793.602051,290.175446 794.972717,290.420471 
	C794.972717,294.957275 794.964050,299.100616 794.974365,303.243927 
	C795.001160,313.969604 799.000305,317.172607 809.795776,314.937286 
	C809.795776,313.026215 809.795776,311.075073 809.795776,309.123962 
	C807.348450,308.130157 804.645264,306.583679 804.375488,304.690399 
	C803.708679,300.011841 804.156677,295.174438 804.156677,290.552124 
	C806.521423,289.292664 811.011292,291.699890 809.982300,285.589539 
M581.983032,285.738464 
	C581.074402,281.242554 578.199829,281.121857 572.660461,285.222107 
	C570.276367,280.959656 566.473633,283.861359 563.345886,282.955414 
	C563.345886,293.894684 563.345886,304.416473 563.345886,314.664490 
	C566.460693,314.664490 569.204285,314.664490 572.079773,314.664490 
	C572.079773,309.836273 572.070740,305.352173 572.081665,300.868164 
	C572.102417,292.361359 573.405090,290.910889 581.983093,290.030365 
	C581.983093,288.899567 581.983093,287.745453 581.983032,285.738464 
M350.616333,288.693176 
	C350.616333,286.906555 350.616333,285.119934 350.616333,283.152222 
	C347.342896,283.152222 344.587616,283.152222 341.662354,283.152222 
	C341.662354,293.836029 341.662354,304.319305 341.662354,314.739563 
	C344.772369,314.739563 347.509338,314.739563 350.616211,314.739563 
	C350.616211,306.175293 350.616211,297.911865 350.616333,288.693176 
M256.873413,303.476440 
	C256.873413,296.712738 256.873413,289.949036 256.873413,283.283020 
	C253.469147,283.283020 250.725098,283.283020 248.033951,283.283020 
	C248.033951,293.980469 248.033951,304.380219 248.033951,314.691040 
	C251.083252,314.691040 253.827454,314.691040 256.873444,314.691040 
	C256.873444,311.072052 256.873444,307.769501 256.873413,303.476440 
M315.529510,119.079445 
	C314.979218,124.469879 315.394958,129.899521 320.971588,132.256439 
	C325.191437,134.039932 330.058502,134.292007 333.443939,134.982254 
	C334.038727,132.429642 334.244904,130.008011 335.161346,127.894318 
	C338.147339,121.007233 335.708130,112.373085 329.938477,110.222961 
	C323.360565,107.771629 317.735992,110.949768 315.529510,119.079445 
M457.528870,118.460983 
	C458.382507,120.056320 459.760406,121.584244 459.976074,123.261612 
	C460.373962,126.355804 460.089813,129.537689 460.089813,132.683044 
	C460.554413,132.892822 461.019012,133.102600 461.483612,133.312378 
	C462.058838,132.341522 463.034668,131.408737 463.131256,130.392395 
	C463.382202,127.751289 462.809723,124.966202 463.427277,122.449989 
	C463.805847,120.907341 465.772125,119.754341 467.025421,118.426376 
	C468.084076,119.825790 469.753510,121.102989 470.063477,122.652199 
	C470.576263,125.214859 470.043335,127.969971 470.309784,130.607758 
	C470.403564,131.536163 471.550964,132.358124 472.217316,133.228683 
	C473.313721,128.772934 473.460571,125.108932 473.278809,121.461296 
	C473.015656,116.181969 469.505707,114.143211 464.686890,116.314796 
	C463.850311,116.691803 463.008942,117.680038 462.283325,117.578049 
	C458.273163,117.014435 454.298218,116.200523 450.225006,115.456657 
	C449.433014,131.663116 449.512909,132.174423 453.141510,132.738907 
	C453.141510,129.723404 452.715424,126.680046 453.289001,123.838463 
	C453.681366,121.894646 455.466858,120.232040 457.528870,118.460983 
M628.455139,136.951950 
	C632.437256,130.131714 629.429871,122.956825 630.203613,116.464806 
	C627.521057,116.195587 625.609436,116.135063 623.751160,115.788391 
	C620.446960,115.171982 617.162964,115.845825 616.247803,119.014595 
	C615.368958,122.057518 615.140259,126.019798 616.388977,128.780594 
	C618.456360,133.351440 622.891602,132.607407 626.991699,130.546570 
	C626.692505,133.998154 626.692505,133.998154 615.860291,134.442642 
	C618.254822,139.332840 621.130859,140.053482 628.455139,136.951950 
M477.234833,133.201813 
	C477.810272,135.022324 478.385742,136.842834 478.961182,138.663345 
	C479.448700,136.932098 479.936432,135.200912 480.423615,133.469574 
	C480.554382,133.004776 480.683258,132.539459 480.812256,132.077103 
	C482.465454,132.455017 484.024994,133.046066 485.611389,133.129974 
	C490.283478,133.377060 493.198364,129.692429 493.025513,123.985924 
	C492.861664,118.579071 489.808929,115.220100 485.289917,115.595871 
	C482.699982,115.811234 480.124817,116.203896 477.234833,116.554077 
	C477.234833,121.680588 477.234833,126.978966 477.234833,133.201813 
M667.555725,115.680283 
	C665.172424,115.929359 662.789124,116.178429 660.356689,116.432648 
	C658.976135,129.542786 659.697266,137.371185 662.857056,138.727188 
	C663.015564,136.336746 663.164185,134.095352 663.314331,131.831345 
	C670.399597,134.315216 673.715027,133.151947 675.274292,127.689240 
	C677.141541,121.147575 674.599915,116.709618 667.555725,115.680283 
M400.092407,130.539185 
	C400.651215,127.358452 402.535400,126.442322 405.704041,126.498283 
	C408.724976,126.551659 410.718658,127.004395 411.507904,130.368607 
	C411.778778,131.523270 413.504425,132.336655 414.565460,133.305954 
	C414.900543,132.958145 415.235596,132.610336 415.570648,132.262527 
	C413.094727,125.587646 410.662872,118.895699 408.091064,112.257973 
	C407.741943,111.356903 406.752319,110.219391 405.948090,110.123543 
	C405.228027,110.037712 403.934692,111.074684 403.614990,111.896584 
	C400.947052,118.756058 398.445923,125.680435 395.894440,132.585205 
	C396.173309,132.846649 396.452179,133.108078 396.731079,133.369522 
	C397.783478,132.693054 398.835907,132.016586 400.092407,130.539185 
M683.969299,132.393387 
	C687.168396,133.776825 690.307556,133.742050 692.492615,130.815918 
	C695.205566,127.182816 695.361938,122.809769 693.062012,119.147751 
	C691.926086,117.339233 688.922302,116.202362 686.583252,115.793488 
	C684.289246,115.392494 681.766479,116.300484 678.888794,116.696678 
	C678.888794,122.915009 678.848145,129.686356 678.947021,136.455658 
	C678.957825,137.194931 679.772583,137.922455 680.214539,138.655457 
	C680.810852,137.889954 681.608032,137.205643 681.957825,136.340439 
	C682.520142,134.949875 682.786865,133.439774 683.969299,132.393387 
M515.370422,117.180420 
	C509.856567,114.437546 505.722717,115.416092 503.646851,119.955582 
	C501.367279,124.940636 503.312897,131.252335 507.613525,132.823730 
	C512.007568,134.429260 515.856140,132.672684 517.277222,128.096848 
	C513.353821,128.630585 508.426849,133.644928 506.017609,125.315491 
	C510.211731,125.315491 514.049194,125.315491 518.919739,125.315491 
	C517.661560,122.155769 516.780273,119.942474 515.370422,117.180420 
M545.321533,126.063629 
	C546.059937,130.002289 547.812256,132.958969 552.323792,133.142792 
	C555.808350,133.284775 558.869141,132.664474 560.299927,127.781151 
	C557.586975,128.767639 555.598694,129.933578 553.515625,130.139389 
	C550.716492,130.415970 548.896057,128.973526 549.113892,125.116531 
	C553.012634,125.116531 556.699036,125.116531 560.367981,125.116531 
	C559.870117,117.325737 556.036682,113.969803 550.368347,115.971863 
	C546.035339,117.502296 545.253723,121.236237 545.321533,126.063629 
M641.938416,128.392609 
	C642.494141,132.487015 645.262390,133.381836 648.803040,133.100662 
	C651.031372,132.923706 653.254272,132.677673 655.913452,132.420700 
	C655.913452,128.884460 656.116760,124.925842 655.855591,120.998108 
	C655.600586,117.161674 652.961975,115.501778 649.360718,115.625900 
	C646.486084,115.724968 643.546875,116.163734 642.856567,120.092575 
	C646.333069,120.909912 650.892273,114.909531 652.840942,122.126236 
	C648.801086,123.778740 643.172363,121.464607 641.938416,128.392609 
M599.953491,115.958939 
	C599.183655,116.490372 597.764343,116.999741 597.745483,117.556679 
	C597.572876,122.636528 597.644043,127.724655 597.644043,132.810364 
	C598.182983,132.975250 598.721924,133.140121 599.260864,133.304993 
	C599.773621,132.223694 600.618347,131.176208 600.732605,130.054306 
	C601.001526,127.414352 600.467834,124.613632 601.154358,122.124992 
	C601.562378,120.645813 603.527832,119.005501 605.067261,118.660233 
	C605.931641,118.466354 608.082825,120.607376 608.371521,121.968521 
	C608.947815,124.685684 608.493530,127.605080 608.776001,130.409637 
	C608.877808,131.421066 609.872559,132.342590 610.459839,133.305130 
	C610.923462,133.090897 611.387146,132.876648 611.850769,132.662399 
	C611.850769,131.014877 611.848999,129.367371 611.851013,127.719849 
	C611.865540,115.927956 611.532837,115.589020 599.953491,115.958939 
M349.076630,129.495407 
	C343.952820,130.814011 343.072693,130.226288 342.913788,125.209274 
	C342.834717,122.712563 343.079773,120.189461 342.785095,117.725304 
	C342.694183,116.964905 341.305634,116.359673 339.743713,115.030022 
	C339.743713,119.094383 339.727112,121.745880 339.746826,124.397102 
	C339.807770,132.598816 340.924194,133.495941 349.146454,132.437744 
	C350.478027,132.266357 351.900818,132.804062 353.926453,133.112061 
	C353.926453,127.765968 354.011810,122.655479 353.828033,117.554680 
	C353.802490,116.846138 352.449615,116.185425 351.442993,115.254532 
	C350.791748,120.381432 350.253937,124.615181 349.076630,129.495407 
M429.748657,120.228455 
	C432.418396,114.807526 435.989441,121.995346 439.138611,119.728500 
	C437.342346,115.342682 433.853973,114.992981 430.431030,116.071289 
	C428.738007,116.604645 426.580872,118.690567 426.370300,120.301079 
	C425.865173,124.164444 429.416962,124.710197 432.202789,125.842728 
	C433.601868,126.411476 434.661835,127.814384 435.875153,128.840073 
	C433.971069,129.130859 432.061157,129.669617 430.164948,129.625137 
	C428.903778,129.595551 427.662201,128.733063 425.403381,127.848427 
	C428.378601,133.019272 432.677917,134.549362 436.371033,132.320465 
	C437.716736,131.508270 439.274353,129.535263 439.166901,128.219971 
	C439.040161,126.668434 437.475647,124.888359 436.057373,123.875282 
	C434.257324,122.589500 431.977722,121.975044 429.748657,120.228455 
M539.031616,116.688080 
	C539.155884,115.470825 539.280212,114.253571 539.404968,113.031555 
	C540.878845,113.031555 541.942078,113.248466 542.860840,112.976692 
	C544.011780,112.636246 545.044128,111.894646 546.127625,111.326195 
	C545.065308,110.888374 544.015747,110.113533 542.938477,110.072922 
	C538.945251,109.922424 534.937561,109.905121 530.948059,110.099121 
	C530.066528,110.141991 529.236877,111.254433 528.383362,111.874374 
	C528.568542,112.216850 528.753662,112.559326 528.938782,112.901802 
	C531.175903,113.001076 533.413025,113.100349 535.854370,113.208687 
	C535.854370,119.292519 535.791138,124.939934 535.924072,130.582718 
	C535.943542,131.405930 536.898743,132.207062 537.420898,133.018417 
	C537.957336,132.227570 538.928772,131.452240 538.957703,130.643280 
	C539.112061,126.316620 539.031128,121.981560 539.031616,116.688080 
M368.286346,115.700058 
	C368.286346,113.586380 368.286346,111.472702 368.286346,109.299629 
	C364.908997,109.844009 364.189697,115.027451 365.204285,130.127884 
	C365.276367,131.200958 366.314606,132.209122 366.903625,133.247467 
	C367.364532,133.006149 367.825409,132.764832 368.286316,132.523499 
	C368.286316,127.233597 368.286316,121.943687 368.286346,115.700058 
M496.135376,128.253708 
	C496.224274,129.802750 496.313141,131.351791 496.410095,133.041290 
	C499.492889,131.897949 500.463928,119.597565 498.191162,108.992859 
	C497.205353,109.804329 496.242554,110.843452 496.208710,111.911972 
	C496.046509,117.037712 496.135529,122.171410 496.135376,128.253708 
M344.113159,270.397217 
	C343.162170,272.301758 341.735809,274.144562 341.476685,276.139008 
	C341.360901,277.030029 343.430695,278.780914 344.786987,279.169159 
	C347.742035,280.015076 350.349091,278.830902 350.702301,275.574066 
	C351.134979,271.584869 348.781219,269.826355 344.113159,270.397217 
M249.031342,278.451782 
	C251.409882,278.147736 253.961304,278.238892 256.069458,277.316711 
	C256.769653,277.010406 257.028076,273.585876 256.235168,272.514465 
	C255.268814,271.208710 252.938904,270.177643 251.272980,270.276642 
	C247.775330,270.484497 246.857224,273.483856 249.031342,278.451782 
M592.396667,133.057068 
	C592.781860,127.600777 593.190796,122.145744 593.479919,116.684357 
	C593.493958,116.419930 592.452698,115.866432 591.906799,115.871506 
	C591.367493,115.876511 590.352173,116.447128 590.367798,116.723076 
	C590.676514,122.172012 591.104980,127.614159 592.396667,133.057068 
M375.933563,131.168900 
	C375.935364,124.894585 376.010498,118.618683 375.874603,112.347351 
	C375.848694,111.152000 374.989105,109.974701 374.514160,108.789070 
	C373.950928,108.965660 373.387695,109.142242 372.824463,109.318825 
	C372.824463,116.545876 372.766205,123.773659 372.856018,130.999588 
	C372.887512,133.534195 374.112518,133.782654 375.933563,131.168900 
M442.974854,132.183502 
	C444.725739,133.769653 445.940002,133.582794 446.000824,131.044205 
	C446.103546,126.756889 446.111267,122.462372 445.955719,118.178268 
	C445.927124,117.391312 444.934204,116.639381 444.386383,115.871292 
	C443.899109,116.702278 443.018860,117.520203 442.990723,118.366455 
	C442.848236,122.651443 442.927185,126.943787 442.974854,132.183502 
M357.923157,125.462051 
	C357.927582,127.440758 357.835022,129.427460 357.997101,131.393158 
	C358.043976,131.961823 358.821594,132.470245 359.264191,133.006256 
	C359.850616,132.450684 360.928741,131.909714 360.945740,131.337204 
	C361.082947,126.724304 361.064484,122.104469 360.960358,117.489746 
	C360.948029,116.943832 360.132568,116.416039 359.689423,115.879837 
	C359.104065,116.441147 358.067688,116.962387 358.013641,117.570900 
	C357.810120,119.861641 357.926575,122.180809 357.923157,125.462051 
z"/>
<path fill="#111729" opacity="1.000000" stroke="none" 
	d="
M233.000000,473.000031 
	C201.500031,473.000031 170.500046,473.004761 139.500076,472.997345 
	C129.304596,472.994904 125.006638,468.654877 125.002022,458.374695 
	C124.994301,441.208038 124.984222,424.041382 125.006226,406.874756 
	C125.018089,397.617432 129.568283,393.007324 138.750641,393.006989 
	C385.583771,392.998169 632.416870,392.998199 879.250000,393.007019 
	C888.431946,393.007355 892.981812,397.617920 892.993774,406.875397 
	C893.015747,423.875336 893.002380,440.875366 892.999146,457.875336 
	C892.997009,468.851715 888.887329,472.998871 877.999268,472.998932 
	C663.166199,473.000366 448.333099,473.000031 233.000000,473.000031 
M441.050232,439.940643 
	C445.268982,447.970245 457.347626,450.524719 463.859680,443.921051 
	C467.669708,440.125641 468.787476,435.662811 467.478485,430.373840 
	C462.946533,430.373840 458.713928,430.373840 454.309326,430.373840 
	C454.309326,432.339325 454.309326,434.041565 454.309326,435.744568 
	C456.819214,435.993530 458.997375,436.209564 461.802734,436.487854 
	C460.559204,438.328613 459.751404,439.524353 458.197296,440.918579 
	C452.505463,443.109375 448.711609,440.612335 445.867920,435.215485 
	C445.840515,433.493011 445.813141,431.770538 446.106140,429.396362 
	C448.659546,425.603363 452.106628,423.188904 456.646423,425.003937 
	C460.484741,426.538574 461.925842,424.686554 463.596252,422.079834 
	C454.489166,415.579437 446.193848,417.445892 440.493805,427.464386 
	C440.635406,431.406616 440.776978,435.348816 441.050232,439.940643 
M495.769440,443.594238 
	C503.972992,442.590698 506.006958,440.040771 504.573761,431.718109 
	C501.999390,432.207001 499.414795,432.697815 496.830200,433.188629 
	C498.208649,434.321777 499.587097,435.454895 501.149994,436.739655 
	C499.939362,440.452271 497.081024,440.919647 493.871796,439.279083 
	C490.599396,437.606232 489.908630,431.456268 492.386963,428.143921 
	C494.597443,425.189484 497.274536,425.151886 500.178802,427.136963 
	C501.505035,428.043457 502.854492,428.915924 504.193420,429.803833 
	C504.656403,429.180328 505.119385,428.556854 505.582367,427.933350 
	C503.610901,426.277405 501.890228,423.981903 499.618713,423.091156 
	C493.887329,420.843689 489.133881,423.616638 487.445862,429.582001 
	C485.611359,436.065186 488.714478,441.687042 495.769440,443.594238 
M555.023315,439.303711 
	C555.023315,435.547852 555.023315,431.791992 555.023315,428.376221 
	C552.122131,428.000366 549.647461,427.099701 547.459290,427.560089 
	C545.289001,428.016724 541.954895,429.604218 541.704163,431.121094 
	C541.197632,434.185364 542.300354,437.568970 543.041443,440.750519 
	C543.238586,441.597107 544.531250,442.188538 545.620544,443.165955 
	C543.862549,443.575592 542.549988,443.881409 541.178467,444.200989 
	C543.326538,449.192841 547.462402,448.615082 551.067993,447.767181 
	C554.685181,446.916565 555.433777,443.660583 555.023315,439.303711 
M573.764282,443.114868 
	C575.483704,442.031097 577.203064,440.947296 579.183228,439.699188 
	C575.562683,436.883728 571.081726,443.734802 568.833801,436.863434 
	C572.361877,436.706818 575.553223,436.565186 578.903870,436.416473 
	C579.138550,431.576965 577.533752,428.374542 573.097229,427.505524 
	C569.059875,426.714722 566.318909,428.971039 565.166626,432.661591 
	C563.291809,438.666626 566.598938,442.917816 573.764282,443.114868 
M538.187073,438.493866 
	C539.757385,431.487579 535.876221,426.290741 529.981384,427.542969 
	C526.224243,428.341095 523.823669,431.027100 524.257629,434.518341 
	C524.618652,437.423004 526.190735,441.249878 528.456970,442.595245 
	C531.916565,444.649109 535.857849,443.361420 538.187073,438.493866 
M519.995605,441.353607 
	C523.550781,436.048370 522.531311,429.824158 517.731995,427.958038 
	C514.224670,426.594269 510.453827,427.190857 509.226868,430.585083 
	C508.148865,433.567261 508.114990,437.857941 509.524170,440.587585 
	C511.581757,444.573090 515.773499,444.006104 519.995605,441.353607 
M562.104004,429.560913 
	C562.101929,427.733337 562.234070,425.890747 562.032043,424.085541 
	C561.950439,423.356689 561.138184,422.709686 560.658447,422.025452 
	C560.061829,422.762024 558.968262,423.485168 558.947998,424.237244 
	C558.800354,429.716003 558.801331,435.202332 558.944336,440.681335 
	C558.964783,441.461365 560.005188,442.214752 560.573547,442.980469 
	C561.082642,442.156311 561.986938,441.352722 562.031006,440.504395 
	C562.203064,437.190399 562.102905,433.862274 562.104004,429.560913 
z"/>
<path fill="#191F2C" opacity="1.000000" stroke="none" 
	d="
M261.738037,318.973633 
	C262.033905,317.754486 262.590332,316.115112 262.893372,316.160645 
	C265.863922,316.607391 268.766266,317.532623 271.740356,317.923706 
	C274.410400,318.274780 277.438751,318.865570 279.754059,317.948853 
	C281.407776,317.294128 282.143280,314.320129 283.288513,312.381012 
	C282.909668,312.097473 282.530792,311.813965 282.151947,311.530426 
	C280.447205,312.343567 278.815247,313.407990 277.025146,313.926483 
	C269.185547,316.197266 262.685150,312.361298 260.844666,304.279327 
	C260.262573,301.723358 260.054504,298.990570 260.216187,296.372101 
	C261.075134,282.461029 273.240234,279.030884 280.138031,284.435699 
	C284.634796,283.669861 287.921082,283.110168 291.665161,282.472534 
	C291.665161,294.058258 291.853241,304.833862 291.508972,315.592468 
	C291.438782,317.786407 289.816254,320.383514 288.139862,321.993591 
	C281.469299,328.400238 267.569061,326.848236 261.738037,318.973633 
M280.917084,292.694946 
	C276.049500,288.635742 271.465332,289.637177 270.035797,295.352631 
	C269.461060,297.650574 269.195984,300.634796 270.209869,302.558258 
	C271.332794,304.688629 273.992157,307.095215 276.146790,307.262299 
	C277.968750,307.403564 281.173462,304.836517 281.709351,302.899200 
	C282.515686,299.984039 281.527283,296.572449 280.917084,292.694946 
z"/>
<path fill="#181D2B" opacity="1.000000" stroke="none" 
	d="
M244.161133,302.019165 
	C243.489288,309.599304 239.938416,314.119720 232.943115,314.911224 
	C228.109818,315.458099 222.937057,315.217743 218.225418,314.064728 
	C212.389664,312.636627 209.981171,308.355743 210.229980,302.409210 
	C214.041962,302.206024 217.823364,301.086029 220.627197,305.487030 
	C221.542953,306.924469 224.415192,307.583252 226.455368,307.730713 
	C229.804428,307.972778 233.780380,307.648315 234.507355,303.580688 
	C235.263351,299.350616 231.299423,298.853180 228.299576,298.002472 
	C224.632462,296.962524 220.757660,296.407074 217.314972,294.873627 
	C209.436249,291.364166 208.148361,281.163177 214.599518,275.438080 
	C220.351913,270.333099 233.141739,269.829346 238.775299,275.072906 
	C241.179581,277.310760 242.367661,280.855286 244.623642,284.679413 
	C238.947754,284.951538 235.037170,286.004089 232.303558,281.298126 
	C231.516129,279.942566 228.273453,279.087433 226.475861,279.476929 
	C224.187439,279.972809 222.223663,281.967010 220.119934,283.315277 
	C221.817139,285.040955 223.220154,287.446655 225.278656,288.337128 
	C228.583450,289.766815 232.393570,289.973175 235.859955,291.097717 
	C240.844315,292.714813 244.179871,295.894958 244.161133,302.019165 
z"/>
<path fill="#181D2B" opacity="1.000000" stroke="none" 
	d="
M472.080139,311.084473 
	C468.801910,301.651489 465.629700,292.604095 462.328247,283.187988 
	C465.913879,283.187988 468.869263,283.187988 472.361572,283.187988 
	C474.324554,290.306152 476.339508,297.612732 478.354462,304.919312 
	C478.632690,305.000854 478.910919,305.082397 479.189148,305.163940 
	C481.238617,297.848114 483.288116,290.532257 485.360535,283.134583 
	C488.505981,283.134583 491.475342,283.134583 495.192627,283.134583 
	C490.947876,295.294495 487.126129,307.242950 482.557831,318.898773 
	C480.339050,324.559967 475.137939,325.922516 465.869843,324.756775 
	C465.869843,322.691132 465.869843,320.591125 465.869843,318.505096 
	C473.464081,317.510742 473.840424,317.084412 472.080139,311.084473 
z"/>
<path fill="#181D2B" opacity="1.000000" stroke="none" 
	d="
M623.098572,308.917816 
	C623.098572,311.054291 623.098572,312.702271 623.098572,314.837952 
	C619.741089,314.225403 615.881714,317.143280 613.715820,313.184509 
	C610.004944,313.817749 606.086121,315.097321 602.205078,314.991486 
	C597.535522,314.864166 594.744324,311.622925 594.119812,306.965668 
	C593.484070,302.224792 595.576172,298.554932 600.042725,297.234344 
	C604.417480,295.940857 609.098389,295.683167 613.635620,294.972290 
	C613.301941,290.154968 609.579224,288.333832 605.611816,290.525604 
	C602.745850,292.108917 599.459778,292.931763 596.361023,294.093750 
	C595.833984,293.364105 595.307007,292.634460 594.779968,291.904816 
	C596.650696,289.482483 598.057495,286.331421 600.485962,284.785065 
	C606.045837,281.244781 612.460754,281.165558 617.956177,284.595551 
	C620.439392,286.145447 622.374878,289.952240 622.863525,293.006287 
	C623.667419,298.031189 623.092346,303.276764 623.098572,308.917816 
M603.189697,304.653229 
	C603.410400,308.279480 605.796631,308.914581 608.685669,308.338379 
	C612.296082,307.618256 614.582886,305.704590 613.548523,300.366364 
	C609.977661,301.651672 606.755371,302.811523 603.189697,304.653229 
z"/>
<path fill="#1C222F" opacity="1.000000" stroke="none" 
	d="
M751.796143,282.979828 
	C753.026001,283.588531 754.469177,284.186768 754.477905,284.805359 
	C754.619019,294.766388 754.577576,304.730011 754.577576,315.091888 
	C750.969788,314.135925 746.895203,317.226257 744.850708,312.674500 
	C742.504761,313.531860 740.021851,314.901245 737.389221,315.312714 
	C730.200623,316.436249 725.291138,312.440155 725.021790,305.179474 
	C724.756531,298.028961 724.963928,290.860931 724.963928,283.339783 
	C727.867188,283.339783 730.725281,283.339783 734.020996,283.339783 
	C734.020996,288.857574 734.044800,294.315826 734.012939,299.773682 
	C733.990234,303.667755 734.329590,307.410675 739.321594,307.811951 
	C743.038757,308.110809 745.232178,305.093933 745.339905,299.690765 
	C745.448792,294.231262 745.363953,288.767914 745.363953,282.978821 
	C747.721008,282.978821 749.531555,282.978821 751.796143,282.979828 
z"/>
<path fill="#191F2C" opacity="1.000000" stroke="none" 
	d="
M716.831299,311.874237 
	C709.534302,316.865051 700.194702,316.705383 694.859619,311.728577 
	C689.645630,306.864746 688.458496,296.127686 692.393494,289.423370 
	C695.914795,283.423889 704.149780,280.799286 711.775330,283.246124 
	C718.280762,285.333557 722.675232,291.974854 721.615356,299.854004 
	C721.069153,303.913727 718.679688,307.725433 716.831299,311.874237 
M711.353455,293.599579 
	C709.085266,292.393951 706.640930,290.022156 704.601318,290.330200 
	C702.778442,290.605469 700.780273,293.619629 700.005615,295.827423 
	C699.248474,297.984955 699.196533,301.031281 700.197815,302.991211 
	C701.283203,305.115875 703.722412,307.357544 705.966736,307.894287 
	C709.436584,308.724060 711.424622,305.790527 711.897156,302.659790 
	C712.305664,299.952484 711.841370,297.113434 711.353455,293.599579 
z"/>
<path fill="#191F2C" opacity="1.000000" stroke="none" 
	d="
M506.019592,315.128540 
	C495.070892,312.877960 492.576721,301.034698 495.493073,292.143799 
	C498.120087,284.134857 507.096191,280.336975 516.033691,283.228912 
	C522.956299,285.468872 526.747559,292.439819 525.901489,301.372864 
	C525.158447,309.219177 520.649353,314.294342 513.347046,315.195892 
	C511.072876,315.476654 508.729279,315.195190 506.019592,315.128540 
M514.563904,291.894928 
	C510.047089,288.712494 506.111481,289.276093 504.777954,293.964264 
	C503.885254,297.102539 503.974579,300.875580 504.853333,304.021271 
	C505.335358,305.746826 508.376617,307.817932 510.244171,307.798950 
	C512.127991,307.779694 515.329041,305.580444 515.585999,303.960846 
	C516.171021,300.273438 515.305908,296.356018 514.563904,291.894928 
z"/>
<path fill="#171D2A" opacity="1.000000" stroke="none" 
	d="
M768.079529,303.127197 
	C768.079529,307.236115 768.079529,310.866119 768.079529,314.750732 
	C765.028687,314.750732 762.286621,314.750732 759.263062,314.750732 
	C759.263062,304.365692 759.263062,293.967346 759.263062,283.154266 
	C762.462402,283.577057 766.254944,281.168732 768.699036,285.382019 
	C770.879761,284.531616 773.339966,283.079010 775.968628,282.643707 
	C782.690369,281.530640 787.624817,284.937408 788.151855,291.715240 
	C788.739380,299.269745 788.286560,306.905182 788.286560,314.757935 
	C785.584595,314.757935 782.823669,314.757935 779.643066,314.757935 
	C779.643066,309.570374 779.668823,304.432709 779.636597,299.295380 
	C779.595215,292.700470 777.825562,289.924591 773.850098,290.103516 
	C770.147705,290.270172 768.148315,293.576172 768.081177,299.652802 
	C768.070129,300.651184 768.079590,301.649750 768.079529,303.127197 
z"/>
<path fill="#171D2A" opacity="1.000000" stroke="none" 
	d="
M354.987579,288.119324 
	C354.987579,286.178986 354.987579,284.725067 354.987579,282.777069 
	C358.604340,283.992249 362.862091,280.532043 364.326904,284.620697 
	C368.298645,283.972046 372.025391,282.850555 375.742401,282.882019 
	C380.746368,282.924377 383.842438,286.230133 384.086395,291.070831 
	C384.477081,298.823792 384.191040,306.610840 384.191040,314.698212 
	C381.698364,314.698212 378.951202,314.698212 375.644348,314.698212 
	C375.644348,310.319611 375.667786,305.881409 375.633728,301.443665 
	C375.618439,299.452148 376.071747,297.172058 375.263794,295.543030 
	C374.229889,293.458527 371.964630,290.325043 370.541718,290.481354 
	C368.396027,290.717102 365.288086,293.102997 364.788025,295.120117 
	C363.772705,299.215454 364.205872,303.675110 364.089661,307.985901 
	C364.031921,310.126587 364.079620,312.270111 364.079620,314.709900 
	C361.111969,314.709900 358.367432,314.709900 354.987579,314.709900 
	C354.987579,306.107147 354.987579,297.356445 354.987579,288.119324 
z"/>
<path fill="#171D2A" opacity="1.000000" stroke="none" 
	d="
M308.031006,284.411926 
	C318.603973,279.701752 325.648193,284.004822 325.974823,295.038086 
	C326.152252,301.032043 326.009644,307.035583 325.994751,313.034790 
	C325.993561,313.510040 325.862122,313.984955 325.751099,314.728699 
	C322.980652,314.728699 320.238678,314.728699 316.888550,314.728699 
	C316.888550,309.342896 316.921265,303.910034 316.879578,298.477692 
	C316.835510,292.730591 314.998444,289.852234 311.282562,290.149963 
	C306.216278,290.555908 305.484894,294.516968 305.346649,298.472992 
	C305.160919,303.786591 305.300629,309.111572 305.300629,314.719360 
	C302.287323,314.719360 299.542572,314.719360 296.478088,314.719360 
	C296.478088,304.351715 296.478088,293.949585 296.478088,283.180786 
	C300.014374,283.225891 303.724152,281.566772 306.451202,285.372559 
	C306.488586,285.424713 307.277252,284.938599 308.031006,284.411926 
z"/>
<path fill="#181D2B" opacity="1.000000" stroke="none" 
	d="
M422.967041,286.991547 
	C430.120148,281.297241 439.308929,280.945068 445.210846,285.860382 
	C450.672791,290.409271 452.224457,301.527405 448.311188,308.408386 
	C445.016052,314.202423 439.628021,315.767700 433.454651,315.477875 
	C427.086884,315.178925 422.159180,312.425171 420.102966,306.155579 
	C417.935669,299.547150 418.150146,293.053406 422.967041,286.991547 
M429.889862,292.473267 
	C429.310181,294.176514 428.433624,295.840942 428.205170,297.590057 
	C427.442413,303.429749 430.307739,307.997131 434.553772,308.089233 
	C438.853302,308.182495 441.308838,304.535522 441.103119,298.338104 
	C441.075684,297.512177 441.062164,296.671783 440.900574,295.866547 
	C439.723694,290.000702 435.417419,288.361237 429.889862,292.473267 
z"/>
<path fill="#171D2A" opacity="1.000000" stroke="none" 
	d="
M558.890625,298.003052 
	C558.890625,303.798431 558.890625,309.095032 558.890625,314.886200 
	C555.369751,314.218903 551.397217,317.350983 549.249817,312.449493 
	C547.046204,313.340942 544.758423,314.729767 542.299866,315.174622 
	C534.726318,316.545013 529.714050,312.928131 529.252014,305.361481 
	C528.808960,298.105255 529.156311,290.800781 529.156311,283.255585 
	C532.125610,283.255585 534.860901,283.255585 538.152466,283.255585 
	C538.152466,288.880524 538.104492,294.478577 538.168945,300.075348 
	C538.213562,303.951691 538.800232,307.892059 543.813904,307.770996 
	C548.511902,307.657562 549.641174,303.937531 549.731689,300.004547 
	C549.857544,294.536713 549.763367,289.063812 549.763367,283.292450 
	C552.748291,283.292450 555.493347,283.292450 558.890625,283.292450 
	C558.890625,287.986389 558.890625,292.745300 558.890625,298.003052 
z"/>
<path fill="#191F2C" opacity="1.000000" stroke="none" 
	d="
M658.603760,301.478333 
	C657.819702,287.892609 665.249878,280.717102 677.492432,282.763794 
	C684.039185,283.858307 687.420044,287.476074 688.422302,294.769196 
	C684.742432,294.804291 681.023804,296.904816 678.345642,291.861908 
	C676.621399,288.615234 671.730042,289.233398 669.452087,292.354889 
	C667.213562,295.422302 667.211182,302.643250 669.447693,305.675385 
	C671.583008,308.570312 676.441772,309.409485 678.009399,306.501038 
	C680.585876,301.720947 684.280640,302.859650 688.092957,303.092590 
	C687.903137,310.712006 683.243958,315.109467 675.044250,315.539520 
	C665.823669,316.023102 660.096619,311.250610 658.603760,301.478333 
z"/>
<path fill="#191F2C" opacity="1.000000" stroke="none" 
	d="
M636.936890,293.300659 
	C636.837708,297.393250 636.140015,301.326233 637.159668,304.747314 
	C638.329468,308.672119 644.133972,309.763336 645.994629,306.487732 
	C648.668030,301.781097 652.280518,302.859406 656.092957,303.092712 
	C655.899048,310.873322 650.979919,315.350647 642.544983,315.554962 
	C632.717285,315.793030 626.636169,309.752747 626.302124,299.421173 
	C625.987915,289.704803 631.377930,283.361298 640.700745,282.475311 
	C649.428467,281.645935 655.363159,286.228455 656.383301,294.782104 
	C652.328857,295.341553 648.925232,295.900940 645.807922,291.465271 
	C643.459351,288.123352 639.538940,289.385590 636.936890,293.300659 
z"/>
<path fill="#191F2C" opacity="1.000000" stroke="none" 
	d="
M411.385010,296.992645 
	C411.385284,298.981506 411.449921,300.481537 411.373413,301.974304 
	C411.172485,305.894012 411.857513,309.087189 416.950134,308.812012 
	C416.950134,311.013916 416.950134,312.972443 416.950134,314.890991 
	C406.648682,317.281128 402.231995,313.899780 402.138428,303.680328 
	C402.098907,299.366455 402.131805,295.051880 402.131805,290.458466 
	C400.796143,290.213196 399.576904,289.989319 398.138916,289.725281 
	C398.138916,287.750397 398.138916,285.805176 398.138916,283.478333 
	C399.236969,283.203064 400.569733,282.868958 402.122864,282.479614 
	C402.122864,280.320648 402.122864,278.188751 402.122864,275.660767 
	C405.085297,275.660767 407.817657,275.660767 411.104675,275.660767 
	C411.256989,277.842468 411.424072,280.235382 411.600494,282.762451 
	C413.347961,282.898834 414.966278,283.025146 416.846344,283.171906 
	C416.846344,285.342926 416.846344,287.407532 416.846344,289.783508 
	C415.280518,289.923706 413.683167,290.066711 411.385040,290.272491 
	C411.385040,292.346069 411.385040,294.423279 411.385010,296.992645 
z"/>
<path fill="#171D2A" opacity="1.000000" stroke="none" 
	d="
M809.982666,286.045471 
	C811.011292,291.699890 806.521423,289.292664 804.156677,290.552124 
	C804.156677,295.174438 803.708679,300.011841 804.375488,304.690399 
	C804.645264,306.583679 807.348450,308.130157 809.795776,309.123962 
	C809.795776,311.075073 809.795776,313.026215 809.795776,314.937286 
	C799.000305,317.172607 795.001160,313.969604 794.974365,303.243927 
	C794.964050,299.100616 794.972717,294.957275 794.972717,290.420471 
	C793.602051,290.175446 792.276489,289.938477 790.838562,289.681396 
	C790.838562,287.533020 790.838562,285.573486 790.838562,283.363922 
	C792.126709,283.152527 793.352356,282.951385 794.808289,282.712494 
	C794.913696,280.454224 795.020264,278.169983 795.141113,275.581543 
	C797.973938,275.581543 800.708374,275.581543 803.851868,275.581543 
	C803.994385,277.810211 804.137878,280.053711 804.272644,282.160339 
	C805.564819,284.490570 810.306763,280.678680 809.982666,286.045471 
z"/>
<path fill="#171D2A" opacity="1.000000" stroke="none" 
	d="
M581.983032,286.164886 
	C581.983093,287.745453 581.983093,288.899567 581.983093,290.030365 
	C573.405090,290.910889 572.102417,292.361359 572.081665,300.868164 
	C572.070740,305.352173 572.079773,309.836273 572.079773,314.664490 
	C569.204285,314.664490 566.460693,314.664490 563.345886,314.664490 
	C563.345886,304.416473 563.345886,293.894684 563.345886,282.955414 
	C566.473633,283.861359 570.276367,280.959656 572.660461,285.222107 
	C578.199829,281.121857 581.074402,281.242554 581.983032,286.164886 
z"/>
<path fill="#272D39" opacity="1.000000" stroke="none" 
	d="
M350.616272,289.170807 
	C350.616211,297.911865 350.616211,306.175293 350.616211,314.739563 
	C347.509338,314.739563 344.772369,314.739563 341.662354,314.739563 
	C341.662354,304.319305 341.662354,293.836029 341.662354,283.152222 
	C344.587616,283.152222 347.342896,283.152222 350.616333,283.152222 
	C350.616333,285.119934 350.616333,286.906555 350.616272,289.170807 
z"/>
<path fill="#181D2B" opacity="1.000000" stroke="none" 
	d="
M256.873413,303.971680 
	C256.873444,307.769501 256.873444,311.072052 256.873444,314.691040 
	C253.827454,314.691040 251.083252,314.691040 248.033951,314.691040 
	C248.033951,304.380219 248.033951,293.980469 248.033951,283.283020 
	C250.725098,283.283020 253.469147,283.283020 256.873413,283.283020 
	C256.873413,289.949036 256.873413,296.712738 256.873413,303.971680 
z"/>
<path fill="#151515" opacity="1.000000" stroke="none" 
	d="
M315.600037,118.682205 
	C317.735992,110.949768 323.360565,107.771629 329.938477,110.222961 
	C335.708130,112.373085 338.147339,121.007233 335.161346,127.894318 
	C334.244904,130.008011 334.038727,132.429642 333.443939,134.982254 
	C330.058502,134.292007 325.191437,134.039932 320.971588,132.256439 
	C315.394958,129.899521 314.979218,124.469879 315.600037,118.682205 
M326.402283,126.173988 
	C327.982941,126.675743 329.563629,127.177498 331.138855,127.677536 
	C333.864288,122.457924 333.875488,116.732399 330.262360,114.561691 
	C328.135132,113.283691 324.523010,113.122498 322.123901,113.981560 
	C318.840424,115.157310 317.634857,121.454399 319.289276,125.625328 
	C320.635223,129.018600 322.998962,130.959747 327.173676,130.020218 
	C326.656921,128.781982 326.229950,127.758888 326.402283,126.173988 
z"/>
<path fill="#101010" opacity="1.000000" stroke="none" 
	d="
M457.079224,118.452347 
	C455.466858,120.232040 453.681366,121.894646 453.289001,123.838463 
	C452.715424,126.680046 453.141510,129.723404 453.141510,132.738907 
	C449.512909,132.174423 449.433014,131.663116 450.225006,115.456657 
	C454.298218,116.200523 458.273163,117.014435 462.283325,117.578049 
	C463.008942,117.680038 463.850311,116.691803 464.686890,116.314796 
	C469.505707,114.143211 473.015656,116.181969 473.278809,121.461296 
	C473.460571,125.108932 473.313721,128.772934 472.217316,133.228683 
	C471.550964,132.358124 470.403564,131.536163 470.309784,130.607758 
	C470.043335,127.969971 470.576263,125.214859 470.063477,122.652199 
	C469.753510,121.102989 468.084076,119.825790 467.025421,118.426376 
	C465.772125,119.754341 463.805847,120.907341 463.427277,122.449989 
	C462.809723,124.966202 463.382202,127.751289 463.131256,130.392395 
	C463.034668,131.408737 462.058838,132.341522 461.483612,133.312378 
	C461.019012,133.102600 460.554413,132.892822 460.089813,132.683044 
	C460.089813,129.537689 460.373962,126.355804 459.976074,123.261612 
	C459.760406,121.584244 458.382507,120.056320 457.079224,118.452347 
z"/>
<path fill="#101010" opacity="1.000000" stroke="none" 
	d="
M628.144287,137.197311 
	C621.130859,140.053482 618.254822,139.332840 615.860291,134.442642 
	C626.692505,133.998154 626.692505,133.998154 626.991699,130.546570 
	C622.891602,132.607407 618.456360,133.351440 616.388977,128.780594 
	C615.140259,126.019798 615.368958,122.057518 616.247803,119.014595 
	C617.162964,115.845825 620.446960,115.171982 623.751160,115.788391 
	C625.609436,116.135063 627.521057,116.195587 630.203613,116.464806 
	C629.429871,122.956825 632.437256,130.131714 628.144287,137.197311 
M625.543152,128.055405 
	C627.828186,125.223114 628.132812,122.109482 625.408936,119.707520 
	C624.332458,118.758308 620.805237,118.647453 620.245972,119.448273 
	C619.000671,121.231422 618.127502,123.994370 618.554504,126.057533 
	C619.203613,129.193954 621.991760,129.686386 625.543152,128.055405 
z"/>
<path fill="#151515" opacity="1.000000" stroke="none" 
	d="
M477.234833,132.739578 
	C477.234833,126.978966 477.234833,121.680588 477.234833,116.554077 
	C480.124817,116.203896 482.699982,115.811234 485.289917,115.595871 
	C489.808929,115.220100 492.861664,118.579071 493.025513,123.985924 
	C493.198364,129.692429 490.283478,133.377060 485.611389,133.129974 
	C484.024994,133.046066 482.465454,132.455017 480.812256,132.077103 
	C480.683258,132.539459 480.554382,133.004776 480.423615,133.469574 
	C479.936432,135.200912 479.448700,136.932098 478.961182,138.663345 
	C478.385742,136.842834 477.810272,135.022324 477.234833,132.739578 
M486.989105,129.897751 
	C490.201813,127.545120 490.419006,124.402420 488.977814,121.104866 
	C487.598877,117.949760 483.403687,117.367737 481.908936,120.290443 
	C480.900360,122.262520 480.623779,125.166740 481.296082,127.240181 
	C481.727997,128.572205 484.477753,129.152695 486.989105,129.897751 
z"/>
<path fill="#101010" opacity="1.000000" stroke="none" 
	d="
M667.942993,115.622223 
	C674.599915,116.709618 677.141541,121.147575 675.274292,127.689240 
	C673.715027,133.151947 670.399597,134.315216 663.314331,131.831345 
	C663.164185,134.095352 663.015564,136.336746 662.857056,138.727188 
	C659.697266,137.371185 658.976135,129.542786 660.356689,116.432648 
	C662.789124,116.178429 665.172424,115.929359 667.942993,115.622223 
M666.946960,118.612762 
	C662.508911,120.538330 662.269226,124.186882 664.159973,127.652206 
	C664.901123,129.010620 667.901062,129.136627 669.872253,129.823914 
	C670.559753,126.981789 671.645142,124.148415 671.707886,121.292564 
	C671.728455,120.356796 669.092957,119.362679 666.946960,118.612762 
z"/>
<path fill="#151515" opacity="1.000000" stroke="none" 
	d="
M399.990356,130.939651 
	C398.835907,132.016586 397.783478,132.693054 396.731079,133.369522 
	C396.452179,133.108078 396.173309,132.846649 395.894440,132.585205 
	C398.445923,125.680435 400.947052,118.756058 403.614990,111.896584 
	C403.934692,111.074684 405.228027,110.037712 405.948090,110.123543 
	C406.752319,110.219391 407.741943,111.356903 408.091064,112.257973 
	C410.662872,118.895699 413.094727,125.587646 415.570648,132.262527 
	C415.235596,132.610336 414.900543,132.958145 414.565460,133.305954 
	C413.504425,132.336655 411.778778,131.523270 411.507904,130.368607 
	C410.718658,127.004395 408.724976,126.551659 405.704041,126.498283 
	C402.535400,126.442322 400.651215,127.358452 399.990356,130.939651 
M403.076996,121.898659 
	C404.781708,122.776054 406.486420,123.653450 408.191101,124.530853 
	C408.451416,124.111504 408.711731,123.692154 408.972046,123.272812 
	C407.961700,120.619156 406.951355,117.965508 405.697937,114.673386 
	C404.684631,117.397743 403.991486,119.261337 403.076996,121.898659 
z"/>
<path fill="#101010" opacity="1.000000" stroke="none" 
	d="
M683.573914,132.186798 
	C682.786865,133.439774 682.520142,134.949875 681.957825,136.340439 
	C681.608032,137.205643 680.810852,137.889954 680.214478,138.655441 
	C679.772583,137.922455 678.957825,137.194931 678.947021,136.455658 
	C678.848145,129.686356 678.888794,122.915009 678.888794,116.696678 
	C681.766479,116.300484 684.289246,115.392494 686.583252,115.793488 
	C688.922302,116.202362 691.926086,117.339233 693.062012,119.147751 
	C695.361938,122.809769 695.205566,127.182816 692.492615,130.815918 
	C690.307556,133.742050 687.168396,133.776825 683.573914,132.186798 
M685.732239,118.641060 
	C681.201965,120.481972 681.195007,124.194725 682.897766,127.600815 
	C683.571838,128.949097 686.588806,129.126160 688.538940,129.836472 
	C689.322937,127.190514 690.635864,124.546677 690.646545,121.897598 
	C690.651184,120.738144 687.994263,119.567978 685.732239,118.641060 
z"/>
<path fill="#101010" opacity="1.000000" stroke="none" 
	d="
M515.634644,117.454803 
	C516.780273,119.942474 517.661560,122.155769 518.919739,125.315491 
	C514.049194,125.315491 510.211731,125.315491 506.017609,125.315491 
	C508.426849,133.644928 513.353821,128.630585 517.277222,128.096848 
	C515.856140,132.672684 512.007568,134.429260 507.613525,132.823730 
	C503.312897,131.252335 501.367279,124.940636 503.646851,119.955582 
	C505.722717,115.416092 509.856567,114.437546 515.634644,117.454803 
M512.743591,122.901535 
	C513.256470,122.338425 513.769409,121.775314 514.282288,121.212219 
	C512.911865,120.282578 511.423340,118.478317 510.200714,118.643372 
	C508.651428,118.852524 507.318207,120.662193 505.891815,121.781639 
	C506.140350,122.155869 506.388885,122.530090 506.637421,122.904312 
	C508.416901,122.904312 510.196411,122.904312 512.743591,122.901535 
z"/>
<path fill="#101010" opacity="1.000000" stroke="none" 
	d="
M545.272095,125.667656 
	C545.253723,121.236237 546.035339,117.502296 550.368347,115.971863 
	C556.036682,113.969803 559.870117,117.325737 560.367981,125.116531 
	C556.699036,125.116531 553.012634,125.116531 549.113892,125.116531 
	C548.896057,128.973526 550.716492,130.415970 553.515625,130.139389 
	C555.598694,129.933578 557.586975,128.767639 560.299927,127.781151 
	C558.869141,132.664474 555.808350,133.284775 552.323792,133.142792 
	C547.812256,132.958969 546.059937,130.002289 545.272095,125.667656 
M556.918274,121.904984 
	C555.390259,120.774261 553.953857,118.973694 552.302063,118.747803 
	C551.197144,118.596695 549.786133,120.683205 548.512085,121.768410 
	C548.770325,122.070015 549.028564,122.371628 549.286804,122.673233 
	C551.747864,122.673233 554.208862,122.673233 556.918274,121.904984 
z"/>
<path fill="#101010" opacity="1.000000" stroke="none" 
	d="
M641.943237,127.998276 
	C643.172363,121.464607 648.801086,123.778740 652.840942,122.126236 
	C650.892273,114.909531 646.333069,120.909912 642.856567,120.092575 
	C643.546875,116.163734 646.486084,115.724968 649.360718,115.625900 
	C652.961975,115.501778 655.600586,117.161674 655.855591,120.998108 
	C656.116760,124.925842 655.913452,128.884460 655.913452,132.420700 
	C653.254272,132.677673 651.031372,132.923706 648.803040,133.100662 
	C645.262390,133.381836 642.494141,132.487015 641.943237,127.998276 
M651.218567,125.201294 
	C649.752625,125.441132 648.211853,125.483582 646.850769,125.999847 
	C646.113892,126.279358 645.225159,127.380623 645.245972,128.086395 
	C645.266113,128.770691 646.240540,129.729691 647.008301,130.036469 
	C650.245911,131.330124 652.509827,129.111328 651.218567,125.201294 
z"/>
<path fill="#151515" opacity="1.000000" stroke="none" 
	d="
M600.269043,116.104370 
	C611.532837,115.589020 611.865540,115.927956 611.851013,127.719849 
	C611.848999,129.367371 611.850769,131.014877 611.850769,132.662399 
	C611.387146,132.876648 610.923462,133.090897 610.459839,133.305130 
	C609.872559,132.342590 608.877808,131.421066 608.776001,130.409637 
	C608.493530,127.605080 608.947815,124.685684 608.371521,121.968521 
	C608.082825,120.607376 605.931641,118.466354 605.067261,118.660233 
	C603.527832,119.005501 601.562378,120.645813 601.154358,122.124992 
	C600.467834,124.613632 601.001526,127.414352 600.732605,130.054306 
	C600.618347,131.176208 599.773621,132.223694 599.260864,133.304993 
	C598.721924,133.140121 598.182983,132.975250 597.644043,132.810364 
	C597.644043,127.724655 597.572876,122.636528 597.745483,117.556679 
	C597.764343,116.999741 599.183655,116.490372 600.269043,116.104370 
z"/>
<path fill="#151515" opacity="1.000000" stroke="none" 
	d="
M349.396393,129.172165 
	C350.253937,124.615181 350.791748,120.381432 351.442993,115.254532 
	C352.449615,116.185425 353.802490,116.846138 353.828033,117.554680 
	C354.011810,122.655479 353.926453,127.765968 353.926453,133.112061 
	C351.900818,132.804062 350.478027,132.266357 349.146454,132.437744 
	C340.924194,133.495941 339.807770,132.598816 339.746826,124.397102 
	C339.727112,121.745880 339.743713,119.094383 339.743713,115.030022 
	C341.305634,116.359673 342.694183,116.964905 342.785095,117.725304 
	C343.079773,120.189461 342.834717,122.712563 342.913788,125.209274 
	C343.072693,130.226288 343.952820,130.814011 349.396393,129.172165 
z"/>
<path fill="#151515" opacity="1.000000" stroke="none" 
	d="
M429.826782,120.649780 
	C431.977722,121.975044 434.257324,122.589500 436.057373,123.875282 
	C437.475647,124.888359 439.040161,126.668434 439.166901,128.219971 
	C439.274353,129.535263 437.716736,131.508270 436.371033,132.320465 
	C432.677917,134.549362 428.378601,133.019272 425.403381,127.848427 
	C427.662201,128.733063 428.903778,129.595551 430.164948,129.625137 
	C432.061157,129.669617 433.971069,129.130859 435.875153,128.840057 
	C434.661835,127.814384 433.601868,126.411476 432.202789,125.842728 
	C429.416962,124.710197 425.865173,124.164444 426.370300,120.301079 
	C426.580872,118.690567 428.738007,116.604645 430.431030,116.071289 
	C433.853973,114.992981 437.342346,115.342682 439.138611,119.728500 
	C435.989441,121.995346 432.418396,114.807526 429.826782,120.649780 
z"/>
<path fill="#101010" opacity="1.000000" stroke="none" 
	d="
M575.924561,116.704865 
	C574.334778,119.206375 572.744995,121.707886 571.067810,124.346909 
	C572.788086,126.950134 574.500793,129.541855 576.524231,132.603851 
	C571.471741,134.005890 571.654724,129.092224 569.381104,127.602089 
	C567.355103,129.593613 565.264648,131.648453 563.174194,133.703293 
	C562.570129,133.379929 561.966003,133.056564 561.361877,132.733185 
	C567.260010,127.265015 568.269592,121.804726 561.339233,116.457352 
	C566.876831,114.557899 566.628174,120.030052 568.532043,120.882797 
	C571.122925,119.039688 573.326477,117.472084 575.693604,116.217834 
	C575.857178,116.531189 575.924561,116.704865 575.924561,116.704865 
z"/>
<path fill="#1C222F" opacity="1.000000" stroke="none" 
	d="
M576.350098,116.484009 
	C575.924561,116.704865 575.857178,116.531189 575.887207,116.443077 
	C577.370972,115.320412 578.856812,114.327217 580.264648,113.233490 
	C580.948242,112.702431 581.414856,111.869087 582.134827,111.423080 
	C582.333862,111.299828 583.222778,111.980103 583.565857,112.456718 
	C584.684448,114.010529 585.697021,115.640617 586.812256,117.335350 
	C582.343933,120.413918 582.340210,123.797234 587.196716,132.341705 
	C582.045959,133.622421 580.536743,132.598312 580.293640,127.467789 
	C580.101257,123.406395 581.330139,118.939819 576.350098,116.484009 
z"/>
<path fill="#101010" opacity="1.000000" stroke="none" 
	d="
M539.031616,117.168739 
	C539.031128,121.981560 539.112061,126.316620 538.957703,130.643280 
	C538.928772,131.452240 537.957336,132.227570 537.420898,133.018402 
	C536.898743,132.207062 535.943542,131.405930 535.924072,130.582718 
	C535.791138,124.939934 535.854370,119.292519 535.854370,113.208687 
	C533.413025,113.100349 531.175903,113.001076 528.938782,112.901802 
	C528.753662,112.559326 528.568542,112.216850 528.383362,111.874374 
	C529.236877,111.254433 530.066528,110.141991 530.948059,110.099121 
	C534.937561,109.905121 538.945251,109.922424 542.938477,110.072922 
	C544.015747,110.113533 545.065308,110.888374 546.127625,111.326195 
	C545.044128,111.894646 544.011780,112.636246 542.860840,112.976692 
	C541.942078,113.248466 540.878845,113.031555 539.404968,113.031555 
	C539.280212,114.253571 539.155884,115.470825 539.031616,117.168739 
z"/>
<path fill="#151515" opacity="1.000000" stroke="none" 
	d="
M368.286316,116.176926 
	C368.286316,121.943687 368.286316,127.233597 368.286316,132.523499 
	C367.825409,132.764832 367.364532,133.006149 366.903625,133.247467 
	C366.314606,132.209122 365.276367,131.200958 365.204285,130.127884 
	C364.189697,115.027451 364.908997,109.844009 368.286346,109.299629 
	C368.286346,111.472702 368.286346,113.586380 368.286316,116.176926 
z"/>
<path fill="#151515" opacity="1.000000" stroke="none" 
	d="
M496.135345,127.777992 
	C496.135529,122.171410 496.046509,117.037712 496.208710,111.911972 
	C496.242554,110.843452 497.205353,109.804329 498.191162,108.992859 
	C500.463928,119.597565 499.492889,131.897949 496.410095,133.041290 
	C496.313141,131.351791 496.224274,129.802750 496.135345,127.777992 
z"/>
<path fill="#1C222F" opacity="1.000000" stroke="none" 
	d="
M344.481445,270.270264 
	C348.781219,269.826355 351.134979,271.584869 350.702301,275.574066 
	C350.349091,278.830902 347.742035,280.015076 344.786987,279.169159 
	C343.430695,278.780914 341.360901,277.030029 341.476685,276.139008 
	C341.735809,274.144562 343.162170,272.301758 344.481445,270.270264 
z"/>
<path fill="#1C222F" opacity="1.000000" stroke="none" 
	d="
M248.772064,278.198761 
	C246.857224,273.483856 247.775330,270.484497 251.272980,270.276642 
	C252.938904,270.177643 255.268814,271.208710 256.235168,272.514465 
	C257.028076,273.585876 256.769653,277.010406 256.069458,277.316711 
	C253.961304,278.238892 251.409882,278.147736 248.772064,278.198761 
z"/>
<path fill="#272D39" opacity="1.000000" stroke="none" 
	d="
M591.952881,133.057373 
	C591.104980,127.614159 590.676514,122.172012 590.367798,116.723076 
	C590.352173,116.447128 591.367493,115.876511 591.906799,115.871506 
	C592.452698,115.866432 593.493958,116.419930 593.479919,116.684357 
	C593.190796,122.145744 592.781860,127.600777 591.952881,133.057373 
z"/>
<path fill="#101010" opacity="1.000000" stroke="none" 
	d="
M375.902527,131.638489 
	C374.112518,133.782654 372.887512,133.534195 372.856018,130.999588 
	C372.766205,123.773659 372.824463,116.545876 372.824463,109.318825 
	C373.387695,109.142242 373.950928,108.965660 374.514160,108.789070 
	C374.989105,109.974701 375.848694,111.152000 375.874603,112.347351 
	C376.010498,118.618683 375.935364,124.894585 375.902527,131.638489 
z"/>
<path fill="#101010" opacity="1.000000" stroke="none" 
	d="
M442.951691,131.708527 
	C442.927185,126.943787 442.848236,122.651443 442.990723,118.366455 
	C443.018860,117.520203 443.899109,116.702278 444.386383,115.871292 
	C444.934204,116.639381 445.927124,117.391312 445.955719,118.178268 
	C446.111267,122.462372 446.103546,126.756889 446.000824,131.044205 
	C445.940002,133.582794 444.725739,133.769653 442.951691,131.708527 
z"/>
<path fill="#101010" opacity="1.000000" stroke="none" 
	d="
M357.923157,124.975693 
	C357.926575,122.180809 357.810120,119.861641 358.013641,117.570900 
	C358.067688,116.962387 359.104065,116.441147 359.689423,115.879837 
	C360.132568,116.416039 360.948029,116.943832 360.960358,117.489746 
	C361.064484,122.104469 361.082947,126.724304 360.945740,131.337204 
	C360.928741,131.909714 359.850616,132.450684 359.264191,133.006256 
	C358.821594,132.470245 358.043976,131.961823 357.997101,131.393158 
	C357.835022,129.427460 357.927582,127.440758 357.923157,124.975693 
z"/>
<path fill="#EDEDEE" opacity="1.000000" stroke="none" 
	d="
M495.405884,443.469269 
	C488.714478,441.687042 485.611359,436.065186 487.445862,429.582001 
	C489.133881,423.616638 493.887329,420.843689 499.618713,423.091156 
	C501.890228,423.981903 503.610901,426.277405 505.582367,427.933350 
	C505.119385,428.556854 504.656403,429.180328 504.193420,429.803833 
	C502.854492,428.915924 501.505035,428.043457 500.178802,427.136963 
	C497.274536,425.151886 494.597443,425.189484 492.386963,428.143921 
	C489.908630,431.456268 490.599396,437.606232 493.871796,439.279083 
	C497.081024,440.919647 499.939362,440.452271 501.149994,436.739655 
	C499.587097,435.454895 498.208649,434.321777 496.830200,433.188629 
	C499.414795,432.697815 501.999390,432.207001 504.573761,431.718109 
	C506.006958,440.040771 503.972992,442.590698 495.405884,443.469269 
z"/>
<path fill="#F3F3F4" opacity="1.000000" stroke="none" 
	d="
M555.023315,439.763550 
	C555.433777,443.660583 554.685181,446.916565 551.067993,447.767181 
	C547.462402,448.615082 543.326538,449.192841 541.178467,444.200989 
	C542.549988,443.881409 543.862549,443.575592 545.620544,443.165955 
	C544.531250,442.188538 543.238586,441.597107 543.041443,440.750519 
	C542.300354,437.568970 541.197632,434.185364 541.704163,431.121094 
	C541.954895,429.604218 545.289001,428.016724 547.459290,427.560089 
	C549.647461,427.099701 552.122131,428.000366 555.023315,428.376221 
	C555.023315,431.791992 555.023315,435.547852 555.023315,439.763550 
M545.038635,432.365875 
	C545.358948,434.445129 545.489929,436.591125 546.177612,438.540833 
	C546.298462,438.883575 549.756287,438.764740 549.945251,438.238556 
	C550.604248,436.403564 550.940063,434.178772 550.448425,432.358856 
	C550.285461,431.755676 547.252075,431.927948 545.038635,432.365875 
M549.670715,441.903137 
	C548.162964,442.167450 546.655151,442.431793 545.147400,442.696106 
	C545.129944,443.198822 545.112427,443.701508 545.094971,444.204193 
	C546.582092,444.444031 548.129578,445.012238 549.525574,444.755920 
	C550.055664,444.658569 550.237366,442.663757 549.670715,441.903137 
z"/>
<path fill="#EDEDEE" opacity="1.000000" stroke="none" 
	d="
M573.404785,443.165771 
	C566.598938,442.917816 563.291809,438.666626 565.166626,432.661591 
	C566.318909,428.971039 569.059875,426.714722 573.097229,427.505524 
	C577.533752,428.374542 579.138550,431.576965 578.903870,436.416473 
	C575.553223,436.565186 572.361877,436.706818 568.833801,436.863434 
	C571.081726,443.734802 575.562683,436.883728 579.183228,439.699188 
	C577.203064,440.947296 575.483704,442.031097 573.404785,443.165771 
z"/>
<path fill="#F3F3F4" opacity="1.000000" stroke="none" 
	d="
M538.099487,438.869385 
	C535.857849,443.361420 531.916565,444.649109 528.456970,442.595245 
	C526.190735,441.249878 524.618652,437.423004 524.257629,434.518341 
	C523.823669,431.027100 526.224243,428.341095 529.981384,427.542969 
	C535.876221,426.290741 539.757385,431.487579 538.099487,438.869385 
M529.113281,431.530396 
	C528.729065,433.081787 527.723694,434.822723 528.124084,436.134644 
	C528.582947,437.638123 530.289368,438.760834 531.453857,440.048950 
	C532.620483,438.891296 534.571838,437.870239 534.801758,436.549500 
	C535.411621,433.046082 534.529846,430.111389 529.113281,431.530396 
z"/>
<path fill="#C74C3E" opacity="1.000000" stroke="none" 
	d="
M440.989258,426.891449 
	C446.193848,417.445892 454.489166,415.579437 463.596252,422.079834 
	C461.925842,424.686554 460.484741,426.538574 456.646423,425.003937 
	C452.106628,423.188904 448.659546,425.603363 445.674866,429.547852 
	C443.825470,428.763367 442.407379,427.827393 440.989258,426.891449 
z"/>
<path fill="#F3F3F4" opacity="1.000000" stroke="none" 
	d="
M519.728638,441.631775 
	C515.773499,444.006104 511.581757,444.573090 509.524170,440.587585 
	C508.114990,437.857941 508.148865,433.567261 509.226868,430.585083 
	C510.453827,427.190857 514.224670,426.594269 517.731995,427.958038 
	C522.531311,429.824158 523.550781,436.048370 519.728638,441.631775 
M514.725586,440.038086 
	C519.570312,439.380096 518.673279,435.840729 517.793579,432.969055 
	C517.494873,431.993958 515.015381,431.686890 513.532410,431.074554 
	C513.038147,433.543213 512.446777,436.000122 512.144348,438.492065 
	C512.093384,438.912048 513.289368,439.483368 514.725586,440.038086 
z"/>
<path fill="#507EE1" opacity="1.000000" stroke="none" 
	d="
M458.943604,440.720123 
	C459.751404,439.524353 460.559204,438.328613 461.802734,436.487854 
	C458.997375,436.209564 456.819214,435.993530 454.309326,435.744568 
	C454.309326,434.041565 454.309326,432.339325 454.309326,430.373840 
	C458.713928,430.373840 462.946533,430.373840 467.478485,430.373840 
	C468.787476,435.662811 467.669708,440.125641 463.319031,443.761963 
	C461.500092,442.641968 460.221863,441.681030 458.943604,440.720123 
z"/>
<path fill="#549D59" opacity="1.000000" stroke="none" 
	d="
M458.570435,440.819336 
	C460.221863,441.681030 461.500092,442.641968 462.990967,443.872467 
	C457.347626,450.524719 445.268982,447.970245 441.293945,439.479553 
	C442.962708,437.980438 444.387787,436.942444 445.812866,435.904449 
	C448.711609,440.612335 452.505463,443.109375 458.570435,440.819336 
z"/>
<path fill="#DFB141" opacity="1.000000" stroke="none" 
	d="
M445.840393,435.559967 
	C444.387787,436.942444 442.962708,437.980438 441.228088,439.154724 
	C440.776978,435.348816 440.635406,431.406616 440.741516,427.177917 
	C442.407379,427.827393 443.825470,428.763367 445.514648,429.873688 
	C445.813141,431.770538 445.840515,433.493011 445.840393,435.559967 
z"/>
<path fill="#FFFFFF" opacity="1.000000" stroke="none" 
	d="
M562.104004,430.050171 
	C562.102905,433.862274 562.203064,437.190399 562.031006,440.504395 
	C561.986938,441.352722 561.082642,442.156311 560.573547,442.980469 
	C560.005188,442.214752 558.964783,441.461365 558.944336,440.681335 
	C558.801331,435.202332 558.800354,429.716003 558.947998,424.237244 
	C558.968262,423.485168 560.061829,422.762024 560.658447,422.025452 
	C561.138184,422.709686 561.950439,423.356689 562.032043,424.085541 
	C562.234070,425.890747 562.101929,427.733337 562.104004,430.050171 
z"/>
<path fill="#F3F3F4" opacity="1.000000" stroke="none" 
	d="
M281.109467,293.033417 
	C281.527283,296.572449 282.515686,299.984039 281.709351,302.899200 
	C281.173462,304.836517 277.968750,307.403564 276.146790,307.262299 
	C273.992157,307.095215 271.332794,304.688629 270.209869,302.558258 
	C269.195984,300.634796 269.461060,297.650574 270.035797,295.352631 
	C271.465332,289.637177 276.049500,288.635742 281.109467,293.033417 
z"/>
<path fill="#EDEDEE" opacity="1.000000" stroke="none" 
	d="
M603.361389,304.312286 
	C606.755371,302.811523 609.977661,301.651672 613.548523,300.366364 
	C614.582886,305.704590 612.296082,307.618256 608.685669,308.338379 
	C605.796631,308.914581 603.410400,308.279480 603.361389,304.312286 
z"/>
<path fill="#F8F8F8" opacity="1.000000" stroke="none" 
	d="
M711.558228,293.966125 
	C711.841370,297.113434 712.305664,299.952484 711.897156,302.659790 
	C711.424622,305.790527 709.436584,308.724060 705.966736,307.894287 
	C703.722412,307.357544 701.283203,305.115875 700.197815,302.991211 
	C699.196533,301.031281 699.248474,297.984955 700.005615,295.827423 
	C700.780273,293.619629 702.778442,290.605469 704.601318,290.330200 
	C706.640930,290.022156 709.085266,292.393951 711.558228,293.966125 
z"/>
<path fill="#F8F8F8" opacity="1.000000" stroke="none" 
	d="
M514.796997,292.213501 
	C515.305908,296.356018 516.171021,300.273438 515.585999,303.960846 
	C515.329041,305.580444 512.127991,307.779694 510.244171,307.798950 
	C508.376617,307.817932 505.335358,305.746826 504.853333,304.021271 
	C503.974579,300.875580 503.885254,297.102539 504.777954,293.964264 
	C506.111481,289.276093 510.047089,288.712494 514.796997,292.213501 
z"/>
<path fill="#F8F8F8" opacity="1.000000" stroke="none" 
	d="
M430.124817,292.151306 
	C435.417419,288.361237 439.723694,290.000702 440.900574,295.866547 
	C441.062164,296.671783 441.075684,297.512177 441.103119,298.338104 
	C441.308838,304.535522 438.853302,308.182495 434.553772,308.089233 
	C430.307739,307.997131 427.442413,303.429749 428.205170,297.590057 
	C428.433624,295.840942 429.310181,294.176514 430.124817,292.151306 
z"/>
<path fill="#F8F8F8" opacity="1.000000" stroke="none" 
	d="
M326.102661,126.454895 
	C326.229950,127.758888 326.656921,128.781982 327.173676,130.020218 
	C322.998962,130.959747 320.635223,129.018600 319.289276,125.625328 
	C317.634857,121.454399 318.840424,115.157310 322.123901,113.981560 
	C324.523010,113.122498 328.135132,113.283691 330.262360,114.561691 
	C333.875488,116.732399 333.864288,122.457924 331.138855,127.677536 
	C329.563629,127.177498 327.982941,126.675743 326.102661,126.454895 
z"/>
<path fill="#F3F3F4" opacity="1.000000" stroke="none" 
	d="
M625.224365,128.316742 
	C621.991760,129.686386 619.203613,129.193954 618.554504,126.057533 
	C618.127502,123.994370 619.000671,121.231422 620.245972,119.448273 
	C620.805237,118.647453 624.332458,118.758308 625.408936,119.707520 
	C628.132812,122.109482 627.828186,125.223114 625.224365,128.316742 
z"/>
<path fill="#F3F3F4" opacity="1.000000" stroke="none" 
	d="
M486.588806,129.983917 
	C484.477753,129.152695 481.727997,128.572205 481.296082,127.240181 
	C480.623779,125.166740 480.900360,122.262520 481.908936,120.290443 
	C483.403687,117.367737 487.598877,117.949760 488.977814,121.104866 
	C490.419006,124.402420 490.201813,127.545120 486.588806,129.983917 
z"/>
<path fill="#EDEDEE" opacity="1.000000" stroke="none" 
	d="
M667.309570,118.504005 
	C669.092957,119.362679 671.728455,120.356796 671.707886,121.292564 
	C671.645142,124.148415 670.559753,126.981789 669.872253,129.823914 
	C667.901062,129.136627 664.901123,129.010620 664.159973,127.652206 
	C662.269226,124.186882 662.508911,120.538330 667.309570,118.504005 
z"/>
<path fill="#EDEDEE" opacity="1.000000" stroke="none" 
	d="
M403.187653,121.511795 
	C403.991486,119.261337 404.684631,117.397743 405.697937,114.673386 
	C406.951355,117.965508 407.961700,120.619156 408.972046,123.272812 
	C408.711731,123.692154 408.451416,124.111504 408.191101,124.530853 
	C406.486420,123.653450 404.781708,122.776054 403.187653,121.511795 
z"/>
<path fill="#F8F8F8" opacity="1.000000" stroke="none" 
	d="
M686.139099,118.521866 
	C687.994263,119.567978 690.651184,120.738144 690.646545,121.897598 
	C690.635864,124.546677 689.322937,127.190514 688.538940,129.836487 
	C686.588806,129.126160 683.571838,128.949097 682.897766,127.600815 
	C681.195007,124.194725 681.201965,120.481972 686.139099,118.521866 
z"/>
<path fill="#EDEDEE" opacity="1.000000" stroke="none" 
	d="
M512.359741,122.902924 
	C510.196411,122.904312 508.416901,122.904312 506.637421,122.904312 
	C506.388885,122.530090 506.140350,122.155869 505.891815,121.781639 
	C507.318207,120.662193 508.651428,118.852524 510.200714,118.643372 
	C511.423340,118.478317 512.911865,120.282578 514.282288,121.212212 
	C513.769409,121.775314 513.256470,122.338425 512.359741,122.902924 
z"/>
<path fill="#EDEDEE" opacity="1.000000" stroke="none" 
	d="
M556.794067,122.289108 
	C554.208862,122.673233 551.747864,122.673233 549.286804,122.673233 
	C549.028564,122.371628 548.770325,122.070015 548.512085,121.768410 
	C549.786133,120.683205 551.197144,118.596695 552.302063,118.747803 
	C553.953857,118.973694 555.390259,120.774261 556.794067,122.289108 
z"/>
<path fill="#EDEDEE" opacity="1.000000" stroke="none" 
	d="
M651.608154,125.239655 
	C652.509827,129.111328 650.245911,131.330124 647.008301,130.036469 
	C646.240540,129.729691 645.266113,128.770691 645.245972,128.086395 
	C645.225159,127.380623 646.113892,126.279358 646.850769,125.999847 
	C648.211853,125.483582 649.752625,125.441132 651.608154,125.239655 
z"/>
<path fill="#171D2A" opacity="1.000000" stroke="none" 
	d="
M545.284851,432.055786 
	C547.252075,431.927948 550.285461,431.755676 550.448425,432.358856 
	C550.940063,434.178772 550.604248,436.403564 549.945251,438.238556 
	C549.756287,438.764740 546.298462,438.883575 546.177612,438.540833 
	C545.489929,436.591125 545.358948,434.445129 545.284851,432.055786 
z"/>
<path fill="#111729" opacity="1.000000" stroke="none" 
	d="
M550.124268,441.718445 
	C550.237366,442.663757 550.055664,444.658569 549.525574,444.755920 
	C548.129578,445.012238 546.582092,444.444031 545.094971,444.204193 
	C545.112427,443.701508 545.129944,443.198822 545.147400,442.696106 
	C546.655151,442.431793 548.162964,442.167450 550.124268,441.718445 
z"/>
<path fill="#191F2C" opacity="1.000000" stroke="none" 
	d="
M529.467102,431.302917 
	C534.529846,430.111389 535.411621,433.046082 534.801758,436.549500 
	C534.571838,437.870239 532.620483,438.891296 531.453857,440.048950 
	C530.289368,438.760834 528.582947,437.638123 528.124084,436.134644 
	C527.723694,434.822723 528.729065,433.081787 529.467102,431.302917 
z"/>
<path fill="#191F2C" opacity="1.000000" stroke="none" 
	d="
M514.317383,440.011414 
	C513.289368,439.483368 512.093384,438.912048 512.144348,438.492065 
	C512.446777,436.000122 513.038147,433.543213 513.532410,431.074554 
	C515.015381,431.686890 517.494873,431.993958 517.793579,432.969055 
	C518.673279,435.840729 519.570312,439.380096 514.317383,440.011414 
z"/>
</svg>