<svg width="251" height="70" viewBox="0 0 251 70" xmlns="http://www.w3.org/2000/svg"><g id="svgGroup" stroke-linecap="round" fill-rule="evenodd" font-size="9pt" stroke="#ffffff" stroke-width="0.25mm" fill="#ffffff" style="stroke:#ffffff;stroke-width:0.25mm;fill:#ffffff"><path d="M 135 70 L 126 70 L 126 0 L 139.3 0 L 158.7 44.3 L 177.8 0 L 191.4 0 L 191.4 70 L 181.9 70 L 181.9 12.1 L 163.2 54.2 L 153.8 54.2 L 135 12.1 L 135 70 Z M 9.5 70 L 0 70 L 0 0 L 9.5 0 L 9.5 29.9 L 44 29.9 L 44 0 L 53.5 0 L 53.5 70 L 44 70 L 44 38.1 L 9.5 38.1 L 9.5 70 Z M 94.5 70 L 85 70 L 85 8.4 L 63.5 8.4 L 63.5 0 L 116 0 L 116 8.4 L 94.5 8.4 L 94.5 70 Z M 251 70 L 209.4 70 L 209.4 0 L 218.9 0 L 218.9 61.5 L 251 61.5 L 251 70 Z" vector-effect="non-scaling-stroke"/></g></svg>