<svg xmlns="http://www.w3.org/2000/svg" viewBox="0 0 150 150" id="resume"><path fill="#45b39c" d="M11 11h128v128H11z"></path><path d="M102.47 38.145c-.37-.39-.89-.64-1.47-.64H57.43L47 47.925v62.58c0 .58.25 1.1.64 1.47L74.666 139H139V74.676l-36.46-36.451-.07-.08z" opacity=".1"></path><path fill="#e1e6e9" d="M57.426 37.5 47 47.926V110.5a2 2 0 0 0 2 2h52a2 2 0 0 0 2-2v-71a2 2 0 0 0-2-2H57.426z"></path><path fill="#ebf0f3" d="M57.426 47.926V37.5L47 47.926z"></path><path fill="#27a2db" d="M75 51.16c-5.553 0-10.246 3.685-11.765 8.744-.53 1.763.824 3.537 2.665 3.537h18.2c1.841 0 3.194-1.774 2.665-3.537-1.52-5.059-6.212-8.744-11.765-8.744z"></path><circle cx="75" cy="46.513" r="4.839" fill="#2d93ba"></circle><path fill="#d5d6db" d="M95.5 71.063h-41a1 1 0 0 1 0-2h41a1 1 0 0 1 0 2zM75.5 77.032h-21a1 1 0 0 1 0-2h21a1 1 0 1 1 0 2zM95.5 83.001h-41a1 1 0 0 1 0-2h41a1 1 0 0 1 0 2zM75.5 88.97h-21a1 1 0 0 1 0-2h21a1 1 0 0 1 0 2zM95.5 94.94h-41a1 1 0 0 1 0-2h41a1 1 0 0 1 0 2zM75.5 100.91h-21a1 1 0 0 1 0-2h21a1 1 0 0 1 0 2zM95.5 106.879h-41a1 1 0 0 1 0-2h41a1 1 0 1 1 0 2z"></path></svg>